<svg xmlns="http://www.w3.org/2000/svg" width="1440" height="560" preserveAspectRatio="none"  xmlns:v="https://vecta.io/nano"><style><![CDATA[.B{animation:float1 5s infinite}.A{animation:float2 4s infinite}.C{animation:float3 6s infinite}]]></style><g mask="url(#A)" fill="rgba(87, 87, 87, 0.11)"><path d="M765.522 494.097l-26.528 135.786 115.023-37.373z" class="A"/><path d="M674.955 456.389l59.675 122.648 68.388-97.668zm531.255-107.705l72.738 52.848 52.848-72.738-72.738-52.848zM827.416 128.316l75.322 86.648 86.648-75.322-75.322-86.648z" class="B"/><path d="M754.299 120.378h140.033V-19.655H754.299zm136.9 277.421l-73.941 94.641 94.641 73.941 73.941-94.641z" class="C"/><path d="M719.83 405.892l-81.79 90.663 104.003 24.011z" class="A"/><path d="M351.461 414.33l-103.859 3.627 57.37 153.975zm870.873-231.972l-73.244 78.545 78.545 73.244 73.244-78.545z" class="C"/><path d="M1143.043 170.597l-55.534-82.332-95.732 124.467zM915.445 632.791l144.937-12.68-12.68-144.937-144.937 12.68z" class="B"/><path d="M1082.187 620.534l36.396-157.649-157.649-36.396-36.396 157.649zm434.206-181.383l-117.728-33.758-33.758 117.728 117.728 33.758z" class="B"/><path d="M-59.847 125.644l126.015 48.51L49.74 57.266z" class="C"/><path d="M683.811 407.894l48.228-35.039-76.673-54.822z" class="B"/><path d="M833.997 550.139l-48.985-105.05-56.064 154.035z" class="C"/><path d="M1.65 374.84l105.756 105.957 36.071-125.795z" class="B"/></g><defs><mask id="A"><path fill="#fff" d="M0 0h1440v560H0z"/></mask></defs></svg>